HIERARCHY
ROOT Hips__laU
{
  OFFSET -9.25178 34.3137 0
  CHANNELS 6 Xposition Yposition Zposition Zrotation Xrotation Yrotation
  JOINT Bip01_Pelvis__3KH
  {
    OFFSET 0 0 0
    CHANNELS 3 Zrotation Xrotation Yrotation
    JOINT BN_Tail_01__vyh
    {
      OFFSET -2.72686 -0.407772 0
      CHANNELS 3 Zrotation Xrotation Yrotation
      JOINT BN_Tail_02__ZBO
      {
        OFFSET 9.45902 0.0334244 0
        CHANNELS 3 Zrotation Xrotation Yrotation
        JOINT BN_Tail_03__6sE
        {
          OFFSET 10.2991 0 0
          CHANNELS 3 Zrotation Xrotation Yrotation
          JOINT BN_Tail_04__OMY
          {
            OFFSET 14.125 -1.33514e-005 0
            CHANNELS 3 Zrotation Xrotation Yrotation
            JOINT BN_Tail_05__Ymi
            {
              OFFSET 12.1389 0.000375748 0
              CHANNELS 3 Zrotation Xrotation Yrotation
              JOINT BN_Tail_06__2ZS
              {
                OFFSET 8.63218 0 0
                CHANNELS 3 Zrotation Xrotation Yrotation
                JOINT BN_Tail_07__UIn
                {
                  OFFSET 7.11833 -0.000595093 0
                  CHANNELS 3 Zrotation Xrotation Yrotation
                  End Site
                  {
                    OFFSET 0 0 0
                  }
                }
              }
            }
          }
        }
      }
    }
    JOINT Bip01_Spine__he3
    {
      OFFSET 2.90937 -0.00482941 0
      CHANNELS 3 Zrotation Xrotation Yrotation
      JOINT Bip01_R_Thigh__5yz
      {
        OFFSET -2.90937 0.00716019 -4.50047
        CHANNELS 3 Zrotation Xrotation Yrotation
        JOINT Bip01_R_Calf__yE2
        {
          OFFSET 16.7585 0 0
          CHANNELS 3 Zrotation Xrotation Yrotation
          JOINT Bip01_R_Foot__pQ5
          {
            OFFSET 15.3603 0 0
            CHANNELS 3 Zrotation Xrotation Yrotation
            JOINT Bip01_R_Toe2__cbV
            {
              OFFSET 2.78812 2.0777 -1.74276
              CHANNELS 3 Zrotation Xrotation Yrotation
              JOINT Bip01_R_Toe21__LiO
              {
                OFFSET 2.28509 0 0
                CHANNELS 3 Zrotation Xrotation Yrotation
                JOINT Bip01_R_Toe2Nub__728
                {
                  OFFSET 2.61851 0 0
                  CHANNELS 3 Zrotation Xrotation Yrotation
                  End Site
                  {
                    OFFSET 0 0 0
                  }
                }
              }
            }
            JOINT Bip01_R_Toe1__KSj
            {
              OFFSET 3.1588 6.28884 -1.34264
              CHANNELS 3 Zrotation Xrotation Yrotation
              JOINT Bip01_R_Toe11__5Uc
              {
                OFFSET 3.77237 0 0
                CHANNELS 3 Zrotation Xrotation Yrotation
                JOINT Bip01_R_Toe1Nub__KgN
                {
                  OFFSET 2.75932 0 0
                  CHANNELS 3 Zrotation Xrotation Yrotation
                  End Site
                  {
                    OFFSET 0 0 0
                  }
                }
              }
            }
            JOINT Bip01_R_Toe0__1Ci
            {
              OFFSET 3.32839 6.64178 0.820227
              CHANNELS 3 Zrotation Xrotation Yrotation
              JOINT Bip01_R_Toe01__M9D
              {
                OFFSET 3.61141 0 0
                CHANNELS 3 Zrotation Xrotation Yrotation
                JOINT Bip01_R_Toe0Nub__Iks
                {
                  OFFSET 3.25944 0 0
                  CHANNELS 3 Zrotation Xrotation Yrotation
                  End Site
                  {
                    OFFSET 0 0 0
                  }
                }
              }
            }
          }
        }
      }
      JOINT Bip01_L_Thigh__HBT
      {
        OFFSET -2.90937 0.00714111 4.50047
        CHANNELS 3 Zrotation Xrotation Yrotation
        JOINT Bip01_L_Calf__vVm
        {
          OFFSET 16.7585 0 0
          CHANNELS 3 Zrotation Xrotation Yrotation
          JOINT Bip01_L_Foot__uRN
          {
            OFFSET 15.3603 0 0
            CHANNELS 3 Zrotation Xrotation Yrotation
            JOINT Bip01_L_Toe2__hMF
            {
              OFFSET 2.78812 2.07769 1.74276
              CHANNELS 3 Zrotation Xrotation Yrotation
              JOINT Bip01_L_Toe21__pjx
              {
                OFFSET 2.28509 0 0
                CHANNELS 3 Zrotation Xrotation Yrotation
                JOINT Bip01_L_Toe2Nub__T98
                {
                  OFFSET 2.61851 0 0
                  CHANNELS 3 Zrotation Xrotation Yrotation
                  End Site
                  {
                    OFFSET 0 0 0
                  }
                }
              }
            }
            JOINT Bip01_L_Toe1__6Kl
            {
              OFFSET 3.1588 6.28884 1.34264
              CHANNELS 3 Zrotation Xrotation Yrotation
              JOINT Bip01_L_Toe11__AzO
              {
                OFFSET 3.77237 0 0
                CHANNELS 3 Zrotation Xrotation Yrotation
                JOINT Bip01_L_Toe1Nub__RvV
                {
                  OFFSET 2.75932 0 0
                  CHANNELS 3 Zrotation Xrotation Yrotation
                  End Site
                  {
                    OFFSET 0 0 0
                  }
                }
              }
            }
            JOINT Bip01_L_Toe0__YeV
            {
              OFFSET 3.32839 6.64178 -0.820224
              CHANNELS 3 Zrotation Xrotation Yrotation
              JOINT Bip01_L_Toe01__Lzl
              {
                OFFSET 3.61141 0 0
                CHANNELS 3 Zrotation Xrotation Yrotation
                JOINT Bip01_L_Toe0Nub__gcj
                {
                  OFFSET 3.25943 0 0
                  CHANNELS 3 Zrotation Xrotation Yrotation
                  End Site
                  {
                    OFFSET 0 0 0
                  }
                }
              }
            }
          }
        }
      }
      JOINT Bip01_Spine1__bEI
      {
        OFFSET 6.06538 -0.00541687 0
        CHANNELS 3 Zrotation Xrotation Yrotation
        JOINT Bip01_Spine2__IFv
        {
          OFFSET 6.82794 -0.00754547 0
          CHANNELS 3 Zrotation Xrotation Yrotation
          JOINT Bip01_L_Clavicle__3KO
          {
            OFFSET 6.50469 2.54354 0.146032
            CHANNELS 3 Zrotation Xrotation Yrotation
            JOINT Bip01_L_UpperArm__hCb
            {
              OFFSET 5.36694 0 0
              CHANNELS 3 Zrotation Xrotation Yrotation
              JOINT Bip01_L_Forearm__85j
              {
                OFFSET 14.7622 0 0
                CHANNELS 3 Zrotation Xrotation Yrotation
                JOINT Bip01_L_Hand__9uQ
                {
                  OFFSET 16.4754 0 0
                  CHANNELS 3 Zrotation Xrotation Yrotation
                  JOINT Bip01_L_Finger3__8GS
                  {
                    OFFSET 5.61879 1.71712 1.51729
                    CHANNELS 3 Zrotation Xrotation Yrotation
                    JOINT Bip01_L_Finger31__Dqk
                    {
                      OFFSET 2.57779 0 0
                      CHANNELS 3 Zrotation Xrotation Yrotation
                      JOINT Bip01_L_Finger32__8zo
                      {
                        OFFSET 1.69121 0 0
                        CHANNELS 3 Zrotation Xrotation Yrotation
                        JOINT Bip01_L_Finger3Nub__r2V
                        {
                          OFFSET 3.01914 0 0
                          CHANNELS 3 Zrotation Xrotation Yrotation
                          End Site
                          {
                            OFFSET 0 0 0
                          }
                        }
                      }
                    }
                  }
                  JOINT Bip01_L_Finger2__SAi
                  {
                    OFFSET 6.16736 1.40181 0.429689
                    CHANNELS 3 Zrotation Xrotation Yrotation
                    JOINT Bip01_L_Finger21__jLM
                    {
                      OFFSET 2.55813 0 0
                      CHANNELS 3 Zrotation Xrotation Yrotation
                      JOINT Bip01_L_Finger22__thq
                      {
                        OFFSET 1.88772 0 0
                        CHANNELS 3 Zrotation Xrotation Yrotation
                        JOINT Bip01_L_Finger2Nub__AVr
                        {
                          OFFSET 2.97052 0 0
                          CHANNELS 3 Zrotation Xrotation Yrotation
                          End Site
                          {
                            OFFSET 0 0 0
                          }
                        }
                      }
                    }
                  }
                  JOINT Bip01_L_Finger1__uWq
                  {
                    OFFSET 5.79823 1.3426 -0.727735
                    CHANNELS 3 Zrotation Xrotation Yrotation
                    JOINT Bip01_L_Finger11__iJg
                    {
                      OFFSET 2.6851 0 0
                      CHANNELS 3 Zrotation Xrotation Yrotation
                      JOINT Bip01_L_Finger12__Ty8
                      {
                        OFFSET 2.35773 0 0
                        CHANNELS 3 Zrotation Xrotation Yrotation
                        JOINT Bip01_L_Finger1Nub__4hU
                        {
                          OFFSET 2.06002 0 0
                          CHANNELS 3 Zrotation Xrotation Yrotation
                          End Site
                          {
                            OFFSET 0 0 0
                          }
                        }
                      }
                    }
                  }
                  JOINT Bip01_L_Finger0__FOZ
                  {
                    OFFSET 5.34553 1.5549 -1.82842
                    CHANNELS 3 Zrotation Xrotation Yrotation
                    JOINT Bip01_L_Finger01__qwc
                    {
                      OFFSET 2.06312 0 0
                      CHANNELS 3 Zrotation Xrotation Yrotation
                      JOINT Bip01_L_Finger02__XcF
                      {
                        OFFSET 1.30829 0 0
                        CHANNELS 3 Zrotation Xrotation Yrotation
                        JOINT Bip01_L_Finger0Nub__U3P
                        {
                          OFFSET 1.39008 0 0
                          CHANNELS 3 Zrotation Xrotation Yrotation
                          End Site
                          {
                            OFFSET 0 0 0
                          }
                        }
                      }
                    }
                  }
                }
              }
            }
          }
          JOINT Bip01_R_Clavicle__mpC
          {
            OFFSET 6.50469 2.54354 -0.146017
            CHANNELS 3 Zrotation Xrotation Yrotation
            JOINT Bip01_R_UpperArm__cmw
            {
              OFFSET 5.36695 0 0
              CHANNELS 3 Zrotation Xrotation Yrotation
              JOINT Bip01_R_Forearm__eS7
              {
                OFFSET 14.7622 0 0
                CHANNELS 3 Zrotation Xrotation Yrotation
                JOINT Bip01_R_Hand__h6b
                {
                  OFFSET 16.4754 0 0
                  CHANNELS 3 Zrotation Xrotation Yrotation
                  JOINT Bip01_R_Finger3__4V0
                  {
                    OFFSET 5.61878 1.71712 -1.51729
                    CHANNELS 3 Zrotation Xrotation Yrotation
                    JOINT Bip01_R_Finger31__SI2
                    {
                      OFFSET 2.57778 0 0
                      CHANNELS 3 Zrotation Xrotation Yrotation
                      JOINT Bip01_R_Finger32__wvp
                      {
                        OFFSET 1.69121 0 0
                        CHANNELS 3 Zrotation Xrotation Yrotation
                        JOINT Bip01_R_Finger3Nub__sZU
                        {
                          OFFSET 3.01913 0 0
                          CHANNELS 3 Zrotation Xrotation Yrotation
                          End Site
                          {
                            OFFSET 0 0 0
                          }
                        }
                      }
                    }
                  }
                  JOINT Bip01_R_Finger2__aL4
                  {
                    OFFSET 6.16735 1.40181 -0.429687
                    CHANNELS 3 Zrotation Xrotation Yrotation
                    JOINT Bip01_R_Finger21__Jix
                    {
                      OFFSET 2.55812 0 0
                      CHANNELS 3 Zrotation Xrotation Yrotation
                      JOINT Bip01_R_Finger22__Drk
                      {
                        OFFSET 1.88771 0 0
                        CHANNELS 3 Zrotation Xrotation Yrotation
                        JOINT Bip01_R_Finger2Nub__zlS
                        {
                          OFFSET 2.97051 0 0
                          CHANNELS 3 Zrotation Xrotation Yrotation
                          End Site
                          {
                            OFFSET 0 0 0
                          }
                        }
                      }
                    }
                  }
                  JOINT Bip01_R_Finger1__shH
                  {
                    OFFSET 5.79823 1.3426 0.727738
                    CHANNELS 3 Zrotation Xrotation Yrotation
                    JOINT Bip01_R_Finger11__NMo
                    {
                      OFFSET 2.6851 0 0
                      CHANNELS 3 Zrotation Xrotation Yrotation
                      JOINT Bip01_R_Finger12__Mq0
                      {
                        OFFSET 2.35773 0 0
                        CHANNELS 3 Zrotation Xrotation Yrotation
                        JOINT Bip01_R_Finger1Nub__z3U
                        {
                          OFFSET 2.06002 0 0
                          CHANNELS 3 Zrotation Xrotation Yrotation
                          End Site
                          {
                            OFFSET 0 0 0
                          }
                        }
                      }
                    }
                  }
                  JOINT Bip01_R_Finger0__k1M
                  {
                    OFFSET 5.34552 1.55491 1.82842
                    CHANNELS 3 Zrotation Xrotation Yrotation
                    JOINT Bip01_R_Finger01__OSt
                    {
                      OFFSET 2.06312 0 0
                      CHANNELS 3 Zrotation Xrotation Yrotation
                      JOINT Bip01_R_Finger02__lh5
                      {
                        OFFSET 1.30829 0 0
                        CHANNELS 3 Zrotation Xrotation Yrotation
                        JOINT Bip01_R_Finger0Nub__D3T
                        {
                          OFFSET 1.39008 0 0
                          CHANNELS 3 Zrotation Xrotation Yrotation
                          End Site
                          {
                            OFFSET 0 0 0
                          }
                        }
                      }
                    }
                  }
                }
              }
            }
          }
          JOINT Bip01_Neck__7Y5
          {
            OFFSET 7.32043 -0.72364 0
            CHANNELS 3 Zrotation Xrotation Yrotation
            JOINT Bip01_Head__QK5
            {
              OFFSET 6.63477 1.80776 0
              CHANNELS 3 Zrotation Xrotation Yrotation
              JOINT BN_Lip_01__m8A
              {
                OFFSET 6.91827 0.516392 0
                CHANNELS 3 Zrotation Xrotation Yrotation
                End Site
                {
                  OFFSET 0 0 0
                }
              }
              JOINT BN_eyelid_R__orJ
              {
                OFFSET 4.9883 -1.379 -1.4384
                CHANNELS 3 Zrotation Xrotation Yrotation
                End Site
                {
                  OFFSET 0 0 0
                }
              }
              JOINT BN_eyelid_L__U2g
              {
                OFFSET 4.98829 -1.37898 1.43689
                CHANNELS 3 Zrotation Xrotation Yrotation
                End Site
                {
                  OFFSET 0 0 0
                }
              }
              JOINT BN_Beard_R__fvu
              {
                OFFSET 4.30219 -0.500206 -3.06098
                CHANNELS 3 Zrotation Xrotation Yrotation
                End Site
                {
                  OFFSET 0 0 0
                }
              }
              JOINT BN_Mouth__50j
              {
                OFFSET 0.467909 -0.500935 1.016e-005
                CHANNELS 3 Zrotation Xrotation Yrotation
                JOINT BN_Lip_02__pae
                {
                  OFFSET 6.82851 -0.388573 1.016e-005
                  CHANNELS 3 Zrotation Xrotation Yrotation
                  End Site
                  {
                    OFFSET 0 0 0
                  }
                }
              }
              JOINT BN_Beard_L__44F
              {
                OFFSET 4.30218 -0.500237 3.06042
                CHANNELS 3 Zrotation Xrotation Yrotation
                End Site
                {
                  OFFSET 0 0 0
                }
              }
              JOINT Bip01_HeadNub__iaN
              {
                OFFSET 9.79679 0 0
                CHANNELS 3 Zrotation Xrotation Yrotation
                End Site
                {
                  OFFSET 0 0 0
                }
              }
            }
          }
        }
      }
    }
  }
}
MOTION
Frames:	3
Frame Time:	0.0333333
-9.80635 33.227 0.00694944 -103.256 -90 -10.6684 -90.2306 0.50052 -76.086 43.5732 -3.40563 177.533 -29.2091 0.00940214 -0.110889 -16.1466 0.0100063 -1.81352 -10.6347 0.0586933 -1.09748 41.7877 -0.000257296 -5.16238 57.041 -0.000837536 -27.2783 52.5573 -0.0671873 -17.2846 -8.6388 0.219961 -4.63293 -69.8122 -19.4191 168.935 -32.1073 2.99621e-006 1.37509e-005 -6.96742 -1.8685 5.10105 -153.097 -48.5117 117.141 0.0294961 7.71108e-006 -0.00419769 1.38489e-007 -1.13393e-008 9.91897e-006 139.009 11.0978 0.811326 0.0249886 2.79481e-005 0.041116 -1.95484e-008 -6.55828e-008 -1.57391e-008 136.395 7.31884 -13.7952 0.0227756 2.50211e-005 0.0377375 1.86925e-007 9.08456e-008 -2.57691e-007 -123.004 41.9873 -152.978 -47.6061 -1.82891e-005 -7.43136e-006 19.7877 22.8241 2.53566 173.829 66.2577 -93.4165 -0.00758804 9.71582e-006 8.31168e-006 -179.96 -0.00147179 0.00075521 84.8127 2.54013 -8.15936 14.7771 -0.00264158 -0.0100575 -179.96 -0.00116995 0.00116455 85.9854 1.92796 6.54106 16.0661 -0.00184769 -0.00645106 -179.961 -0.00115287 0.00280543 10.1385 -1.8144 -7.76435 11.0611 4.24889 -5.80789 179.971 -12.0168 -111.649 -23.2027 -67.1485 66.6439 -58.8269 -1.87872e-005 -1.23178e-005 -66.0748 -8.19656 -33.6403 -18.2468 7.96371 -19.2718 29.8899 -4.58961e-006 2.16638e-006 -18.8256 0.0114252 -0.0334746 -1.65785e-007 2.75574e-006 -5.48566e-007 -17.2883 2.33159 -6.4115 31.5378 -0.0125039 -0.125377 -27.1089 -0.712277 1.09764 -5.59068e-007 2.78822e-007 2.2004e-006 -18.2592 -0.796573 -0.14979 35.529 -0.844325 0.0146051 -35.1559 6.3521 -0.77157 -4.46314e-007 7.21949e-007 1.81671e-006 -13.3883 -7.30424 7.69976 17.7598 2.64645 0.638089 2.36908 2.49116 -0.406687 -2.59162e-007 9.08574e-006 7.75829e-007 179.971 27.5712 101.74 -18.3225 37.6433 -86.9408 -109.739 -2.73701e-006 1.03902e-005 28.7045 -4.38345 -16.2154 6.30129 1.3819 10.5261 34.7677 -0.00653491 -0.00938675 14.9877 -0.0022626 -0.0141769 179.961 0.00208904 0.00676621 29.1113 5.4917 8.32236 19.9401 -0.201831 0.063933 21.2918 -0.0492275 -0.297367 -179.938 -0.00281802 -0.0294271 33.9059 2.38773 2.14686 25.8736 0.148631 0.119663 28.4222 -1.14656 0.79632 -179.962 -0.00576654 -0.00759276 23.4148 1.07414 -7.22352 -23.5127 -0.960477 2.19788 -4.10836 -0.486181 -0.280025 179.961 -0.000863978 0.00556312 -15.6795 1.5655 0.0547164 3.47051 -4.09401 2.43351 -89.5058 -0.0366669 -179.975 147.058 0.0218964 -179.995 -32.9739 -0.0028107 -0.00182348 3.09743 12.9335 141.898 -149.148 0.0598829 178.407 102.996 0.013943 0.10046 -176.406 12.4941 -40.6319 4.22333e-008 -1.12884e-008 9.49802e-009
-9.80635 33.1338 -0.0123801 -103.256 -90 -10.6684 -89.9329 0.537151 -75.7514 43.6432 -3.38745 177.516 -29.1725 -0.0161258 0.187043 -16.1177 -0.0122418 -1.59338 -10.6578 0.0377 -0.855567 41.2041 -0.00105363 -5.08447 55.4576 -0.00191469 -27.1756 50.6564 -0.0488933 -18.4975 -8.62651 0.194432 -4.79896 -70.2488 -19.0636 168.024 -34.1625 2.55923e-006 1.38422e-005 -8.07799 -2.15417 5.89243 -151.33 -48.5509 117.214 -0.177964 4.14085e-006 0.00184475 1.38489e-007 -1.13392e-008 9.91897e-006 139.885 11.2174 1.14917 -0.359172 1.32538e-005 -0.000508967 -1.95484e-008 -6.55828e-008 -1.57391e-008 137.326 7.6657 -13.5008 -0.381765 -6.3516e-005 0.0110361 1.86925e-007 9.08456e-008 -2.57691e-007 -121.76 42.1961 -153.191 -48.3874 -1.81954e-005 -7.68498e-006 20.7561 22.3563 1.98204 174.044 65.9906 -93.338 -0.0112003 9.71531e-006 8.31233e-006 -179.96 -0.00147179 0.00075521 84.9297 2.59745 -8.36576 14.7784 -0.00282297 -0.0107442 -179.96 -0.00116995 0.00116455 86.2397 1.97528 6.36831 16.0661 -0.00222574 -0.00776374 -179.961 -0.00115287 0.00280543 9.45264 -1.89579 -7.77981 11.4701 4.01505 -6.39101 179.977 -12.0152 -111.021 -25.4061 -65.3714 64.9509 -58.0511 -1.8968e-005 -1.2098e-005 -67.4511 -7.71479 -33.532 -19.7549 8.41168 -18.8604 30.6953 -3.8979e-006 3.35104e-006 -18.7126 0.0116046 -0.0342216 -1.65785e-007 2.75574e-006 -5.48566e-007 -18.7486 2.49787 -6.34107 32.3637 -0.0140466 -0.124768 -27.1309 -0.72843 1.12805 -5.59068e-007 2.78822e-007 2.2004e-006 -19.8182 -0.791145 -0.161682 36.38 -0.844629 0.0243378 -35.1912 6.36561 -0.767849 -4.46314e-007 7.21949e-007 1.81671e-006 -15.0498 -7.52238 7.49513 19.0856 2.65119 0.602035 2.83498 2.49396 -0.42466 -2.59162e-007 9.08574e-006 7.75829e-007 179.97 26.9736 103.238 -15.3023 40.6599 -90.5475 -109.906 -2.99884e-006 1.0412e-005 26.1009 -4.89417 -16.3984 9.76695 2.27664 10.1892 38.6551 -0.0131974 -0.0164747 18.0114 0.0151939 0.0419444 179.961 0.00208904 0.00676621 31.1186 5.78107 8.29086 25.2329 -0.195737 0.0808698 24.3768 -0.034704 -0.227072 -179.938 -0.00281801 -0.0294271 35.0817 2.39655 2.25332 30.2 0.123534 0.105559 31.7017 -0.908917 0.669564 -179.962 -0.00576654 -0.00759276 25.9354 0.669643 -7.13935 -18.5305 -0.732926 2.55183 1.34096 -0.40752 -0.226944 179.961 -0.000863975 0.00556312 -15.6782 1.56085 0.199433 3.74683 -4.24922 2.75676 -89.5058 -0.0366669 -179.975 146.85 0.0519867 -179.988 -33.155 -0.0028049 -0.00183236 3.13847 12.9068 141.852 -149.146 0.0582659 178.404 102.996 0.013943 0.10046 -176.306 12.4153 -40.6953 4.22333e-008 -1.12884e-008 9.49802e-009
-9.80635 33.0503 -0.0316357 -103.256 -90 -10.6684 -89.5779 0.58238 -75.8134 43.5184 -3.40473 177.531 -29.2084 -0.0368235 0.514964 -16.2886 -0.0372379 -1.33991 -10.9199 0.0169875 -0.615252 40.9057 -0.00209044 -4.93905 54.2128 -0.000181819 -26.8606 48.79 0.00148668 -19.6644 -8.66218 0.103941 -4.77047 -71.1099 -19.0066 167.196 -37.9023 7.98208e-006 6.06665e-006 -5.2794 -2.7162 7.2968 -151.881 -49.5859 118.143 -1.07582 -0.000121578 0.00699962 1.38489e-007 -1.13393e-008 9.91897e-006 134.535 10.8622 2.1183 -2.20939 0.000972563 -0.0249423 -1.95484e-008 -6.55828e-008 -1.57391e-008 132.215 8.43176 -12.6962 -2.30482 0.0012324 -0.0303724 1.86925e-007 9.08456e-008 -2.57691e-007 -120.066 42.2811 -153.764 -49.1617 -1.81042e-005 -7.93419e-006 22.695 21.7336 1.13464 174.36 65.3913 -93.54 -0.014758 9.71739e-006 -1.7049e-006 -179.96 -0.00147179 0.00075521 85.2503 2.5179 -8.56876 14.7796 -0.00300438 -0.011431 -179.96 -0.00116995 0.00116455 86.5101 1.94249 6.1827 16.0661 -0.00260378 -0.00907642 -179.961 -0.00115287 0.00280543 8.82141 -1.89791 -7.64703 11.8901 3.68825 -6.86695 179.97 -11.9976 -110.396 -27.4172 -63.7502 63.4736 -57.0126 -1.91834e-005 -1.17487e-005 -68.8744 -7.23805 -33.4106 -21.2425 8.84125 -18.4428 31.4395 -4.59275e-006 2.19366e-006 -18.6009 0.0118079 -0.0350468 -1.65785e-007 2.75574e-006 -5.48566e-007 -20.185 2.65947 -6.2679 33.1729 -0.0155382 -0.124146 -27.1977 -0.734524 1.1365 -5.59068e-007 2.78822e-007 2.2004e-006 -21.3501 -0.785478 -0.173431 37.2087 -0.844879 0.0338154 -35.2261 6.37893 -0.764113 -4.46314e-007 7.21949e-007 1.81671e-006 -16.7103 -7.73334 7.28303 20.3908 2.65504 0.566443 3.29365 2.49658 -0.442384 -2.59162e-007 9.08574e-006 7.75829e-007 179.966 25.4128 105.556 -9.64662 42.9478 -96.7844 -109.437 -4.10188e-006 1.0105e-005 19.7251 -4.64988 -16.7589 14.5279 3.44578 9.68622 40.6762 -0.0111348 -0.0129325 21.7768 0.0165562 0.0374551 179.961 0.00208904 0.00676621 32.023 5.90126 8.39603 30.0706 -0.188055 0.0973728 28.6947 -0.0241551 -0.173487 -179.938 -0.00281802 -0.029427 34.9083 2.33872 2.44559 33.2597 0.0990828 0.0454315 35.5403 -0.645311 0.540034 -179.962 -0.00576655 -0.00759276 29.2955 0.158181 -6.97974 -11.9722 -0.390573 2.86022 8.47819 -0.304931 -0.173084 179.961 -0.000863973 0.00556312 -15.6352 1.53089 0.355147 4.12536 -4.37554 3.04921 -89.5058 -0.0366669 -179.975 147.123 0.0417328 -179.99 -32.9176 -0.00281244 -0.00182072 3.31166 12.791 141.672 -149.205 0.0573508 178.403 102.996 0.013943 0.10046 -176.219 12.3468 -40.7511 4.22333e-008 -1.12884e-008 9.49802e-009
